<svg width="28" height="27" viewBox="0 0 28 27" fill="none" xmlns="http://www.w3.org/2000/svg">
<path fill-rule="evenodd" clip-rule="evenodd" d="M23 21.7623C25.8796 20.9627 28 18.2381 28 15C28 13.5559 27.5783 12.2139 26.8556 11.0993C27.5798 9.97591 28.0001 8.63808 28.0001 7.2021C28.0001 3.22449 24.7756 0 20.798 0C19.0525 0 17.452 0.620937 16.2055 1.65397C14.5808 0.605574 12.6627 0 10.6083 0C4.74949 0 0 4.92487 0 11C0 15.3628 2.44938 19.1323 6 20.9107V18.6003C3.61019 17.0152 2 14.2291 2 11C2 5.96046 5.92179 2 10.6083 2C14.5839 2 18.0091 4.85004 18.9569 8.79115L18.9599 8.78992C19.0937 9.33674 19.1791 9.90367 19.2108 10.4855C19.8339 10.1732 20.5272 10 21.2493 10C23.8053 10 26 12.1696 26 15C26 17.1518 24.7314 18.9218 23 19.6467V21.7623ZM17.8221 2.93473C19.2318 4.29111 20.2853 6.04004 20.821 8.01387C20.9626 8.00467 21.1054 8.00001 21.2493 8.00001C22.8393 8.00001 24.301 8.57003 25.4545 9.52375C25.8037 8.82488 26.0001 8.03643 26.0001 7.2021C26.0001 4.32906 23.671 2 20.798 2C19.6913 2 18.6653 2.34559 17.8221 2.93473ZM8.36092 18.9244C8.15328 19.4108 8.0009 19.9308 8.00105 20.4091C8.00132 21.2877 8.67311 22 9.50153 22C10.33 22 11.0013 21.2877 11.001 20.4091C11.0009 19.9619 10.8327 19.4321 10.609 18.9252C10.1643 17.9175 9.5 17 9.5 17C9.5 17 8.80441 17.8856 8.36092 18.9244ZM13.001 20.4091C13.0009 19.9308 13.1533 19.4108 13.3609 18.9244C13.8044 17.8856 14.5 17 14.5 17C14.5 17 15.1643 17.9175 15.609 18.9252C15.8327 19.4321 16.0009 19.9619 16.001 20.4091C16.0013 21.2877 15.33 22 14.5015 22C13.6731 22 13.0013 21.2877 13.001 20.4091ZM11.2354 23.9244C11.0278 24.4108 10.8754 24.9308 10.8756 25.4091C10.8758 26.2877 11.5476 27 12.376 27C13.2045 27 13.8758 26.2877 13.8756 25.4091C13.8754 24.9619 13.7072 24.4321 13.4835 23.9252C13.0388 22.9175 12.3745 22 12.3745 22C12.3745 22 11.6789 22.8856 11.2354 23.9244ZM18.001 20.4091C18.0009 19.9308 18.1533 19.4108 18.3609 18.9244C18.8044 17.8856 19.5 17 19.5 17C19.5 17 20.1643 17.9175 20.609 18.9252C20.8327 19.4321 21.0009 19.9619 21.001 20.4091C21.0013 21.2877 20.33 22 19.5015 22C18.6731 22 18.0013 21.2877 18.001 20.4091ZM16.2503 23.9244C16.0427 24.4108 15.8903 24.9308 15.8905 25.4091C15.8907 26.2877 16.5625 27 17.3909 27C18.2194 27 18.8907 26.2877 18.8904 25.4091C18.8903 24.9619 18.7221 24.4321 18.4984 23.9252C18.0537 22.9175 17.3894 22 17.3894 22C17.3894 22 16.6938 22.8856 16.2503 23.9244Z" fill="white"/>
</svg>
